<?xml version="1.0" standalone="no"?>
<!DOCTYPE svg PUBLIC "-//W3C//DTD SVG 20010904//EN"
 "http://www.w3.org/TR/2001/REC-SVG-20010904/DTD/svg10.dtd">
<svg version="1.0" xmlns="http://www.w3.org/2000/svg"
 width="3000.000000pt" height="691.000000pt" viewBox="0 0 3000.000000 691.000000"
 preserveAspectRatio="xMidYMid meet">
<g transform="translate(0.000000,691.000000) scale(0.100000,-0.100000)"
fill="#ffffff" stroke="none">
<path d="M3233 6298 l-543 -543 -463 463 -462 462 -392 0 c-278 0 -394 -3
-399 -11 -7 -12 3442 -3469 3461 -3469 5 0 187 177 402 392 l393 393 0 -796 0
-795 274 -272 c151 -150 280 -272 288 -272 7 0 347 334 755 743 602 603 743
749 753 781 17 52 7 147 -19 188 -11 18 -750 763 -1643 1656 l-1623 1622 -120
0 -120 0 -542 -542z m1372 -697 l706 -705 -438 -438 c-241 -241 -441 -437
-445 -436 -4 2 -325 320 -713 707 l-706 705 438 438 c241 241 441 437 445 436
4 -2 325 -320 713 -707z m2145 -2149 c0 -4 -157 -165 -350 -357 l-350 -350 0
707 0 706 350 -350 c193 -192 350 -353 350 -356z"/>
<path d="M12760 5433 c-49 -8 -176 -56 -239 -89 -136 -72 -255 -191 -325 -324
-69 -131 -66 -40 -66 -1634 0 -1585 -4 -1490 62 -1620 42 -83 69 -119 155
-203 109 -107 263 -189 404 -213 105 -18 611 -8 669 14 25 9 54 19 65 23 51
17 176 90 236 138 92 75 179 195 227 315 l26 65 3 462 c4 421 2 465 -13 488
-31 48 -32 48 -394 91 -285 33 -328 34 -346 9 -11 -15 -14 -92 -14 -429 0
-257 -4 -425 -11 -449 -25 -90 -149 -127 -236 -70 -23 14 -47 38 -55 51 -11
20 -13 266 -13 1331 0 1243 1 1308 18 1334 30 46 75 67 143 67 74 0 123 -28
141 -80 8 -24 12 -129 12 -331 1 -287 2 -296 22 -315 26 -23 41 -23 284 11
105 14 237 33 295 40 99 14 107 16 138 50 l32 35 0 316 c0 312 0 316 -26 392
-37 110 -88 196 -168 280 -91 95 -214 177 -306 203 -25 7 -49 16 -55 20 -30
21 -136 29 -378 28 -144 -1 -273 -4 -287 -6z"/>
<path d="M26070 5430 c-25 -5 -54 -14 -65 -19 -11 -5 -38 -15 -60 -21 -90 -27
-213 -109 -302 -203 -80 -85 -130 -167 -167 -280 l-26 -77 0 -1439 0 -1438 24
-77 c44 -137 137 -275 244 -358 54 -43 180 -116 227 -131 11 -4 40 -14 65 -23
37 -14 96 -18 324 -21 306 -5 364 1 480 46 245 98 417 284 475 518 21 80 21
101 21 1481 0 1380 0 1400 -21 1482 -22 91 -65 183 -113 245 -110 142 -216
218 -401 288 l-80 31 -290 2 c-159 1 -310 -1 -335 -6z m420 -675 c17 -16 35
-46 40 -66 7 -24 9 -488 8 -1326 -3 -1447 4 -1321 -78 -1363 -90 -46 -206 -7
-229 77 -16 57 -14 2586 2 2633 7 20 27 44 47 58 30 21 44 23 107 20 64 -3 76
-7 103 -33z"/>
<path d="M19503 5403 c-79 -28 -73 144 -73 -2010 0 -1419 3 -1926 12 -1954 23
-78 -20 -74 748 -77 377 -2 704 0 727 3 23 3 52 16 67 30 l26 24 0 305 0 304
-31 26 -31 26 -374 0 -374 0 0 565 0 565 323 0 c303 0 324 1 355 20 l32 20 0
314 0 315 -26 20 c-26 20 -38 21 -355 21 l-329 0 0 390 0 390 370 0 c389 0
417 3 434 45 3 9 6 150 6 314 0 222 -3 301 -12 314 -7 9 -33 23 -57 32 -63 22
-1373 20 -1438 -2z"/>
<path d="M21301 5402 c-68 -23 -71 -37 -71 -347 0 -282 5 -321 48 -344 13 -7
107 -11 256 -11 l236 0 0 -1644 0 -1645 29 -20 c28 -20 42 -21 351 -21 309 0
323 1 351 21 l29 20 0 1645 0 1644 238 0 c260 0 267 1 297 60 23 45 22 545 -2
594 -31 67 -20 66 -920 65 -681 -1 -804 -4 -842 -17z"/>
<path d="M7822 5377 l-22 -23 0 -1965 0 -1965 28 -27 28 -27 326 0 326 0 31
26 31 26 0 834 0 834 195 0 195 0 0 -833 0 -833 28 -27 28 -27 326 0 326 0 31
26 31 26 0 1967 0 1968 -23 21 c-23 22 -28 22 -363 22 l-341 0 -21 -23 -22
-23 0 -777 0 -777 -195 0 -195 0 0 778 0 779 -23 21 c-23 22 -28 22 -363 22
l-341 0 -21 -23z"/>
<path d="M10444 5376 c-26 -22 -29 -33 -46 -167 -24 -194 -72 -587 -102 -844
-14 -115 -29 -235 -35 -265 -5 -30 -17 -127 -26 -215 -8 -88 -20 -185 -26
-215 -6 -30 -21 -149 -34 -265 -14 -115 -38 -318 -54 -450 -16 -132 -42 -346
-56 -475 -14 -129 -30 -251 -35 -270 -6 -19 -19 -127 -30 -239 -12 -113 -23
-208 -25 -212 -6 -9 -35 -258 -35 -302 0 -28 7 -44 26 -62 l27 -25 331 0 c357
0 359 0 388 53 6 12 20 130 30 262 10 132 22 269 26 305 l7 65 176 3 176 2 11
-102 c7 -57 16 -179 22 -273 15 -240 16 -250 51 -285 l31 -30 332 0 c322 0
334 1 360 21 32 25 33 58 6 274 -11 83 -31 249 -44 370 -14 121 -30 240 -35
265 -6 25 -17 119 -26 210 -9 91 -20 188 -26 217 -6 28 -21 148 -35 265 -13
117 -38 323 -54 458 -17 135 -41 342 -55 460 -13 118 -29 238 -34 265 -6 28
-20 142 -32 255 -12 113 -23 208 -26 213 -2 4 -13 91 -24 195 -10 103 -25 225
-33 272 -8 47 -18 118 -21 158 -6 57 -13 79 -32 102 l-25 30 -483 0 -484 0
-27 -24z m546 -1516 c12 -195 24 -359 27 -363 4 -7 52 -668 53 -729 0 -16 -12
-18 -121 -18 l-121 0 6 68 c3 37 13 171 21 297 8 127 19 257 25 290 5 33 16
170 25 305 18 291 46 550 56 524 4 -11 17 -179 29 -374z"/>
<path d="M14212 5377 l-22 -23 0 -1966 0 -1966 31 -26 31 -26 323 0 323 0 31
26 31 26 0 533 0 534 42 96 43 95 19 -42 c10 -24 30 -79 45 -123 47 -137 311
-879 320 -900 5 -11 17 -45 27 -75 26 -84 52 -129 87 -150 30 -19 52 -20 388
-20 344 0 356 1 377 20 13 12 22 33 22 49 0 25 -32 131 -58 191 -6 14 -32 79
-57 145 -25 66 -50 129 -55 140 -11 23 -51 130 -82 220 -11 33 -24 65 -28 70
-4 6 -19 42 -33 80 -14 39 -39 106 -57 150 -17 44 -42 109 -54 145 -13 36 -31
81 -39 100 -9 19 -34 85 -57 145 -23 61 -53 139 -67 175 -14 36 -40 106 -60
155 -19 50 -38 99 -43 110 -9 19 -28 70 -89 235 -15 41 -33 84 -39 96 -10 18
45 133 413 870 234 467 425 859 425 872 0 13 -5 32 -10 43 -10 18 -25 19 -386
19 -322 0 -379 -2 -406 -16 -23 -12 -40 -36 -70 -102 -22 -48 -53 -114 -68
-147 -16 -33 -46 -98 -68 -145 -38 -83 -67 -144 -159 -340 -25 -52 -70 -149
-100 -215 -30 -66 -70 -151 -89 -190 l-33 -70 -1 591 0 591 -23 21 c-23 22
-28 22 -363 22 l-341 0 -21 -23z"/>
<path d="M16595 5374 l-25 -27 0 -1957 0 -1958 29 -31 29 -31 347 0 c353 0
374 2 402 39 10 12 12 211 13 855 0 462 3 837 6 833 4 -3 19 -53 34 -109 15
-57 42 -152 59 -213 18 -60 43 -152 56 -203 14 -51 27 -97 30 -102 3 -5 16
-51 30 -102 13 -51 38 -140 54 -198 17 -58 39 -139 51 -180 39 -140 63 -215
73 -227 13 -17 62 -17 75 0 6 7 18 40 26 73 9 32 29 106 46 164 28 100 49 175
120 425 17 61 44 157 61 215 16 58 38 138 49 178 10 40 26 96 35 123 10 28 25
83 35 122 18 71 18 58 19 -784 l1 -856 26 -27 27 -26 351 0 c381 0 376 0 405
57 8 16 11 552 11 1958 0 1774 -1 1939 -16 1968 -9 18 -22 35 -28 39 -6 4
-158 8 -338 8 -325 0 -327 0 -353 -22 -28 -25 -60 -121 -95 -289 -10 -48 -21
-92 -24 -97 -3 -6 -17 -59 -31 -118 -27 -118 -67 -286 -115 -484 -17 -69 -41
-170 -54 -225 -13 -55 -30 -125 -39 -155 -8 -30 -32 -127 -52 -215 -20 -88
-45 -189 -55 -225 -10 -36 -24 -93 -31 -127 -7 -35 -16 -63 -19 -63 -6 0 -19
49 -66 245 -13 55 -38 156 -54 225 -17 69 -45 181 -61 250 -17 69 -44 179 -60
245 -16 66 -38 158 -49 205 -11 47 -27 110 -35 140 -8 30 -24 93 -35 140 -11
47 -33 141 -50 210 -17 69 -40 162 -51 208 -22 93 -41 130 -76 143 -14 5 -168
9 -344 9 l-320 0 -24 -26z"/>
<path d="M23240 5380 c-20 -20 -20 -33 -20 -1994 l0 -1975 29 -20 c28 -20 42
-21 351 -21 309 0 323 1 351 21 l29 20 0 840 0 839 200 0 200 0 0 -839 0 -840
26 -20 c26 -20 38 -21 351 -21 312 0 326 1 354 21 l29 20 0 1975 c0 1961 0
1974 -20 1994 -19 19 -33 20 -360 20 -327 0 -341 -1 -360 -20 -20 -20 -20 -33
-20 -800 l0 -780 -200 0 -200 0 0 780 c0 767 0 780 -20 800 -19 19 -33 20
-360 20 -327 0 -341 -1 -360 -20z"/>
<path d="M27650 5380 c-20 -20 -20 -21 -20 -1994 l0 -1975 26 -20 c26 -21 35
-21 584 -21 l557 0 101 25 c280 69 510 284 578 538 20 76 20 2837 0 2912 -52
195 -210 380 -407 477 -153 75 -125 72 -796 76 -595 3 -603 2 -623 -18z m1007
-646 c15 -11 36 -36 46 -55 16 -32 17 -109 15 -1304 -3 -1207 -4 -1271 -21
-1297 -29 -42 -83 -58 -202 -58 l-105 0 0 1371 0 1371 119 -4 c102 -3 124 -6
148 -24z"/>
<path d="M1265 4330 l-780 -780 -3 -84 c-3 -68 0 -90 16 -122 28 -53 3262
-3281 3296 -3290 14 -3 68 -4 121 -2 l95 3 582 582 583 582 30 -26 c17 -14
184 -178 372 -364 l341 -339 376 0 c221 0 376 4 376 9 0 5 -753 759 -1672
1675 l-1673 1666 -457 0 -458 0 0 458 0 457 -178 178 c-97 97 -179 177 -182
177 -3 0 -356 -351 -785 -780z m335 -882 l0 -573 -287 287 -288 288 285 285
c157 157 286 285 287 285 2 0 3 -258 3 -572z m2288 -955 c296 -290 633 -622
750 -738 l212 -210 -480 -480 -480 -480 -702 702 c-674 674 -701 703 -685 721
22 24 9 37 -15 15 -17 -15 -20 -15 -48 12 l-30 29 0 478 0 478 471 0 471 0
536 -527z"/>
</g>
</svg>
